<svg width="37" height="39" viewBox="0 0 37 39" fill="none" xmlns="http://www.w3.org/2000/svg">
<path d="M28.7109 2.883C25.4244 1.06124 21.6715 0.254967 17.9267 0.566134C14.1819 0.877301 10.6135 2.29193 7.67274 4.63114C4.73196 6.97034 2.55087 10.1291 1.40529 13.7079C0.259712 17.2866 0.201094 21.1248 1.23685 24.7369C2.2726 28.349 4.35621 31.5728 7.22419 34.0008C10.0922 36.4287 13.6157 37.9516 17.3492 38.377C21.0827 38.8024 24.8586 38.1111 28.1992 36.3906C31.5398 34.67 34.2952 31.9975 36.117 28.711L20.8293 20.2369C20.6836 20.4998 20.4632 20.7136 20.1959 20.8512C19.9287 20.9889 19.6266 21.0442 19.3279 21.0102C19.0292 20.9761 18.7474 20.8543 18.5179 20.6601C18.2885 20.4658 18.1218 20.2079 18.0389 19.919C17.9561 19.63 17.9608 19.3229 18.0524 19.0366C18.1441 18.7503 18.3185 18.4976 18.5538 18.3105C18.7891 18.1234 19.0745 18.0102 19.3741 17.9853C19.6737 17.9604 19.9739 18.0249 20.2369 18.1706L28.7109 2.883Z" fill="black"/>
<path fill-rule="evenodd" clip-rule="evenodd" d="M28.7109 2.883L28.7075 2.88107C27.5867 2.26014 26.4118 1.75728 25.2014 1.37653C22.8634 0.641021 20.3933 0.361177 17.9267 0.566134C14.1819 0.877301 10.6135 2.29193 7.67274 4.63114C4.73196 6.97034 2.55087 10.1291 1.40529 13.7079C0.259712 17.2866 0.201094 21.1248 1.23685 24.7369C2.2726 28.349 4.35621 31.5728 7.22419 34.0008C10.0922 36.4287 13.6157 37.9516 17.3492 38.377C21.0827 38.8024 24.8586 38.1111 28.1992 36.3906C30.3996 35.2573 32.3461 33.711 33.9391 31.8483C34.7637 30.884 35.4936 29.835 36.115 28.7145L36.117 28.711L20.8293 20.2369C20.7321 20.4123 20.6016 20.5659 20.4462 20.6895C20.3686 20.7512 20.2849 20.8054 20.1959 20.8512C20.0176 20.9431 19.8238 20.9983 19.6258 21.0147C19.5271 21.0229 19.4273 21.0215 19.3279 21.0102C19.1286 20.9875 18.9368 20.9257 18.7631 20.8294C18.6764 20.7813 18.5943 20.7247 18.5179 20.6601C18.2885 20.4658 18.1218 20.2079 18.0389 19.919C17.9561 19.63 17.9608 19.3229 18.0524 19.0366C18.0829 18.9414 18.1226 18.8498 18.1706 18.7631C18.2669 18.5894 18.3968 18.4354 18.5538 18.3105C18.6321 18.2482 18.716 18.1941 18.804 18.1488C18.9806 18.0578 19.1742 18.0019 19.3741 17.9853C19.4738 17.977 19.5736 17.9786 19.672 17.9898C19.8694 18.0123 20.0614 18.0734 20.2369 18.1706L28.7109 2.883ZM17.9815 14.4016L23.3114 4.78633C21.6664 4.36024 19.9528 4.2107 18.2414 4.35291C15.2455 4.60184 12.3908 5.73355 10.0382 7.60491C7.68556 9.47628 5.94069 12.0033 5.02423 14.8663C4.10777 17.7293 4.06087 20.7998 4.88948 23.6895C5.71808 26.5792 7.38497 29.1583 9.67935 31.1006C11.9737 33.0429 14.7926 34.2613 17.7794 34.6016C20.7662 34.9419 23.7868 34.3889 26.4593 33.0124C27.9861 32.2261 29.3601 31.1912 30.5293 29.9582L20.914 24.6284C20.2614 24.8083 19.5771 24.863 18.8978 24.7856C17.8524 24.6665 16.8658 24.24 16.0628 23.5602C15.2597 22.8804 14.6763 21.9777 14.3863 20.9663C14.0963 19.9549 14.1127 18.8803 14.4335 17.8782C14.7542 16.8761 15.3649 15.9917 16.1884 15.3367C16.7234 14.9111 17.3327 14.5948 17.9815 14.4016Z" fill="#E5E5E5"/>
</svg>
